<svg width="14" height="14" viewBox="0 0 14 14" fill="none" xmlns="http://www.w3.org/2000/svg">
<path d="M4.9164 2.24387C5.14215 2.24387 5.32499 2.06103 5.32499 1.83528V0.408591C5.32499 0.182848 5.14215 0 4.9164 0C4.69066 0 4.50781 0.182848 4.50781 0.408591V1.83528C4.50781 2.06103 4.69066 2.24387 4.9164 2.24387Z" fill="#8778AE"/>
<path d="M7.65639 0.799005C7.46677 0.674846 7.21394 0.726768 7.08977 0.914135L6.30194 2.1038C6.17778 2.29117 6.2297 2.54626 6.41706 2.67042C6.48705 2.71557 6.56379 2.73814 6.64281 2.73814C6.776 2.73814 6.90467 2.67493 6.98368 2.55529L7.77152 1.36563C7.89568 1.17826 7.84376 0.923168 7.65639 0.799005Z" fill="#8778AE"/>
<path d="M2.85149 2.55529C2.9305 2.67493 3.05917 2.73814 3.19236 2.73814C3.26912 2.73814 3.34812 2.71557 3.41811 2.67042C3.60548 2.54626 3.65739 2.29117 3.53324 2.1038L2.7454 0.914132C2.62124 0.726762 2.3684 0.674852 2.17878 0.799002C1.99141 0.923162 1.9395 1.17825 2.06365 1.36562L2.85149 2.55529Z" fill="#8778AE"/>
<path d="M2.18991 3.31609L0.876081 2.76076C0.668398 2.67272 0.429104 2.76979 0.341075 2.97747C0.253046 3.18515 0.350105 3.42445 0.557788 3.51248L1.87162 4.06781C1.92354 4.09039 1.97772 4.09942 2.02964 4.09942C2.18993 4.09942 2.34116 4.00686 2.40664 3.84884C2.49468 3.64115 2.39761 3.40186 2.18993 3.31383L2.18991 3.31609Z" fill="#8778AE"/>
<path d="M1.73594 5.07243L0.334086 5.33655C0.112865 5.37718 -0.0338785 5.59163 0.00676235 5.81287C0.0428812 6.00927 0.214446 6.14697 0.408577 6.14697C0.433409 6.14697 0.45824 6.14471 0.485329 6.1402L1.88719 5.87608C2.10841 5.83545 2.25515 5.621 2.21451 5.39976C2.17387 5.17853 1.95943 5.0318 1.73819 5.07244L1.73594 5.07243Z" fill="#8778AE"/>
<path d="M13.9454 9.81077L12.9973 8.18773C12.9973 8.18773 13.0289 7.18543 13.0289 7.00936C13.0289 4.70455 11.162 2.83533 8.85488 2.83533C8.24312 2.83533 7.66296 2.97077 7.13924 3.2078C7.56816 3.72249 7.80293 4.36135 7.80293 5.04307C7.80293 5.2011 7.78939 5.35685 7.76456 5.52164C7.64265 6.21015 7.28824 6.81967 6.76451 7.25535C6.67422 7.3321 6.61101 7.42916 6.58166 7.53979C6.57489 7.56913 6.56135 7.59848 6.55006 7.62557C6.59747 7.7407 6.6223 7.8626 6.6223 7.99127V8.15605C6.6223 8.39308 6.53877 8.60979 6.39881 8.77685V8.99356C6.39881 9.51729 5.9857 9.94168 5.46875 9.96652C5.61548 10.2961 5.72609 10.5038 5.72609 10.5038V13.4768C5.72609 13.7635 5.95861 13.996 6.2453 13.996H10.1867C10.4757 13.996 10.7082 13.7635 10.7082 13.4746V13.0727C10.7082 12.7883 10.943 12.5535 11.2274 12.5535H12.4984C12.7738 12.5535 12.9995 12.33 12.9995 12.0524V11.032C12.9995 10.7498 13.232 10.5444 13.5142 10.5376C13.8776 10.5241 14.1102 10.1381 13.9476 9.81074L13.9454 9.81077Z" fill="#8778AE"/>
<path d="M5.64662 7.80615H4.19291C4.09133 7.80615 4.00781 7.88968 4.00781 7.99125V8.15604C4.00781 8.25763 4.09134 8.34114 4.19291 8.34114H4.23129V8.99354C4.23129 9.09512 4.31481 9.17864 4.41639 9.17864H5.42321C5.52479 9.17864 5.60831 9.09511 5.60831 8.99354V8.34114H5.64669C5.74827 8.34114 5.83179 8.25762 5.83179 8.15604V7.99125C5.83179 7.88967 5.7482 7.80615 5.64662 7.80615Z" fill="#8778AE"/>
<path d="M4.81039 2.955C3.74264 3.00917 2.86894 3.89183 2.82617 4.95959C2.8194 5.11084 2.83069 5.25982 2.85326 5.40205C2.9413 5.9032 3.20767 6.34113 3.58241 6.65265C3.79687 6.83099 3.94585 7.07027 4.02035 7.33666C4.03389 7.38406 4.07452 7.41792 4.12419 7.41792H5.71341C5.76308 7.41792 5.80371 7.38406 5.81726 7.33666C5.88949 7.07027 6.04075 6.83099 6.25746 6.65265C6.62993 6.34113 6.89404 5.90319 6.98209 5.4043C7.00015 5.28917 7.01143 5.16953 7.01143 5.04536C7.01143 3.85344 6.01817 2.8963 4.81498 2.95495L4.81039 2.955ZM5.46504 4.21915C4.56207 4.21915 3.8329 4.95056 3.8329 5.85129C3.8329 5.88515 3.83516 5.92127 3.83742 5.95513C3.67488 5.76326 3.56427 5.53299 3.52138 5.28468C3.50558 5.18987 3.4988 5.08603 3.50332 4.98895C3.53266 4.26207 4.12185 3.66836 4.84422 3.63224H4.91646C5.45599 3.63224 5.92328 3.93475 6.16256 4.37946C5.95035 4.28013 5.71558 4.22143 5.46502 4.22143L5.46504 4.21915Z" fill="#8778AE"/>
</svg>
