<svg width="10" height="14" viewBox="0 0 10 14" fill="none" xmlns="http://www.w3.org/2000/svg">
<path d="M9.24045 4.48003L2.24047 13.8133C2.15181 13.9347 2.01182 14 1.86714 14C1.80181 14 1.73647 13.986 1.67582 13.958C1.47514 13.8693 1.36314 13.65 1.40982 13.4353L2.68849 7.46665H0.46716C0.322494 7.46665 0.182502 7.39665 0.0938277 7.27998C0.00515386 7.16331 -0.0228386 7.01399 0.0191613 6.87397L1.88582 0.340658C1.94182 0.139985 2.12383 0 2.33382 0H5.60048C5.74515 0 5.88048 0.0653332 5.96915 0.177333C6.05782 0.293999 6.08582 0.438666 6.05315 0.578665L5.26449 3.73332H8.86715C9.04448 3.73332 9.20781 3.83132 9.28248 3.99C9.36181 4.14866 9.34779 4.34004 9.24045 4.48003Z" fill="#8778AE"/>
</svg>
