<svg width="14" height="14" viewBox="0 0 14 14" fill="none" xmlns="http://www.w3.org/2000/svg">
<path d="M13.9717 1.59623C13.9467 1.53543 13.8874 1.49571 13.8217 1.49571H12.8024C12.8021 1.41319 12.7705 1.33083 12.7076 1.26792C12.6466 1.20712 12.5675 1.17632 12.4879 1.17389V0.16206C12.4879 0.0967233 12.4487 0.0375473 12.3882 0.0124178C12.3284 -0.0125496 12.2582 0.000744671 12.2118 0.0467885L11.112 1.1353C11.0811 1.16578 11.0636 1.20745 11.0638 1.2509L11.0664 2.45095L10.5643 2.95322C9.44189 1.9448 7.95909 1.32985 6.33507 1.32985C2.84191 1.32985 0 4.17176 0 7.66493C0 11.1581 2.84191 14 6.33507 14C9.82824 14 12.6701 11.1581 12.6701 7.66493C12.6701 6.02859 12.0464 4.53525 11.0246 3.40993L11.5265 2.90799L12.7254 2.90539C12.7681 2.90539 12.8089 2.88853 12.8391 2.85854L13.9359 1.77311C13.9826 1.72706 13.9967 1.65702 13.9717 1.59623ZM11.5353 7.66509C11.5353 10.5326 9.20243 12.8653 6.33507 12.8653C3.46771 12.8653 1.13472 10.5324 1.13472 7.66509C1.13472 4.79773 3.46755 2.46474 6.33507 2.46474C7.64635 2.46474 8.84478 2.95355 9.76047 3.7572L8.78431 4.73353C8.12057 4.17792 7.26632 3.84281 6.33507 3.84281C4.2276 3.84281 2.51295 5.55745 2.51295 7.66493C2.51295 9.7724 4.2276 11.487 6.33507 11.487C8.44255 11.487 10.1572 9.7724 10.1572 7.66493C10.1572 6.72168 9.813 5.85771 9.24459 5.1904L10.2207 4.21407C11.0375 5.133 11.5353 6.34165 11.5353 7.66509ZM9.18444 7.66509C9.18444 9.23625 7.90624 10.5145 6.33507 10.5145C4.76391 10.5145 3.48571 9.23625 3.48571 7.66509C3.48571 6.09393 4.76391 4.81572 6.33507 4.81572C6.99801 4.81572 7.60728 5.04529 8.09187 5.42629L7.10485 6.41364C6.88063 6.27518 6.6175 6.1938 6.33507 6.1938C5.52379 6.1938 4.86378 6.85381 4.86378 7.66509C4.86378 8.47637 5.52379 9.13638 6.33507 9.13638C7.14635 9.13638 7.80637 8.47637 7.80637 7.66509C7.80637 7.37067 7.71849 7.09667 7.56901 6.86646L8.55377 5.88138C8.94741 6.37019 9.18444 6.99016 9.18444 7.66509Z" fill="#8778AE"/>
</svg>
