<svg width="17" height="14" viewBox="0 0 17 14" fill="none" xmlns="http://www.w3.org/2000/svg">
<path d="M15.6575 1.41417H13.4977C13.5418 0.927598 13.5493 0.608577 13.5516 0.548987C13.5553 0.403855 13.4962 0.265738 13.387 0.161259C13.2778 0.0574917 13.1305 0 12.9772 0H3.25713C3.10232 0 2.955 0.0574917 2.8473 0.161259C2.74036 0.265024 2.68053 0.403854 2.68277 0.548987C2.68277 0.60788 2.69249 0.927598 2.73662 1.41417H0.576835C0.264977 1.41417 0.0122014 1.64555 0.00247554 1.93861C-0.0603441 4.11418 1.05173 8.33698 5.71161 8.74998C6.14835 9.10895 6.64569 9.3943 7.21632 9.57591C7.50723 9.66776 7.81162 9.71403 8.11599 9.71403C8.42037 9.71403 8.727 9.66705 9.01567 9.57591C9.5863 9.39432 10.0836 9.10895 10.5204 8.74998C15.1803 8.33702 16.2923 4.11418 16.2295 1.93861C16.222 1.64765 15.967 1.41417 15.6551 1.41417H15.6575ZM1.16622 2.49109H2.86238C3.07477 3.93049 3.53844 5.89435 4.54132 7.42341C1.76755 6.51895 1.25601 3.67948 1.16622 2.49109ZM9.22448 5.89992L8.21338 5.38319C8.15205 5.35234 8.07951 5.35234 8.01819 5.38319L7.00709 5.89992C6.85602 5.97704 6.67802 5.85505 6.71018 5.69729L6.92258 4.63439C6.93604 4.57129 6.91286 4.50538 6.8635 4.46051L6.02515 3.71942C5.901 3.61005 5.96756 3.41234 6.13807 3.3927L7.28082 3.25458C7.34962 3.24547 7.40945 3.20621 7.43787 3.14661L7.93145 2.16995C8.004 2.02482 8.22461 2.02482 8.29941 2.16995L8.79299 3.14661C8.82141 3.2055 8.88124 3.24547 8.95005 3.25458L10.0928 3.3927C10.2633 3.41234 10.3299 3.61004 10.2057 3.71942L9.36736 4.46051C9.31726 4.50538 9.29482 4.56989 9.30828 4.63439L9.52068 5.69729C9.55359 5.85505 9.37335 5.97704 9.22377 5.89992H9.22448ZM14.5239 4.73815C13.9473 6.10254 12.996 7.00005 11.6887 7.42346C12.6916 5.89432 13.1552 3.93046 13.3676 2.49115H15.06C15.0159 3.01909 14.8895 3.87516 14.5238 4.73833L14.5239 4.73815Z" fill="#8778AE"/>
<path d="M4.86328 13.4616C4.86328 13.7596 5.11979 14 5.43764 14H10.7983C11.1162 14 11.3727 13.7596 11.3727 13.4616V11.8462H4.86328V13.4616Z" fill="#8778AE"/>
<path d="M9.90016 9.80383C9.68029 9.91321 9.44844 10.0086 9.20315 10.0857C8.85465 10.1972 8.48894 10.2525 8.11949 10.2525C7.75004 10.2525 7.38435 10.1972 7.03583 10.0857C6.804 10.0121 6.58411 9.92232 6.37323 9.82205C6.1758 10.601 5.54236 11.1822 5.30078 11.3098H10.977C10.7339 11.1822 10.0945 10.5954 9.90081 9.80593L9.90016 9.80383Z" fill="#8778AE"/>
</svg>
