<svg width="18" height="14" viewBox="0 0 18 14" fill="none" xmlns="http://www.w3.org/2000/svg">
<path d="M5.19531 13.6416C5.53708 13.6813 5.88275 13.7078 6.23075 13.7234H6.22997C6.27746 13.8067 6.3304 13.8876 6.38723 13.9647C6.39891 13.9803 6.38646 14.0021 6.36777 13.9997C5.95593 13.9647 5.55655 13.8425 5.19531 13.6416Z" fill="#8778AE"/>
<path d="M4.22077 12.8082L4.21844 12.8075V12.8082C3.26631 12.6393 2.34997 12.3115 1.50752 11.8382C0.960214 11.4925 0.540582 10.9795 0.308594 10.3753C0.901838 10.5474 1.51531 10.6338 2.13267 10.633C2.85748 10.6307 3.57762 10.517 4.2674 10.2952C4.41999 10.3209 4.5718 10.3559 4.72128 10.3979C5.16815 10.5295 5.58701 10.7405 5.95913 11.0208C6.07357 11.8071 6.45661 12.5288 7.04439 13.0636C6.09692 13.0768 5.15034 12.9912 4.22077 12.8082Z" fill="#8778AE"/>
<path d="M10.3543 12.5416C10.2975 12.4272 10.2438 12.3073 10.187 12.1789C10.1379 12.0683 10.0865 11.9546 10.0312 11.8379C10.1558 11.8106 10.2835 11.7826 10.4182 11.7522V11.753C11.4637 11.5148 12.465 11.1123 13.3836 10.5603H13.3844C12.5911 11.5047 11.5369 12.1944 10.3543 12.5416Z" fill="#8778AE"/>
<path d="M17.4505 4.11706C17.4497 4.09449 17.4357 4.07346 17.4155 4.06412C17.3945 4.054 17.3703 4.05712 17.3524 4.07035C16.9818 4.28367 16.5692 4.41212 16.1434 4.44638C15.5408 4.5398 15.02 4.62077 14.7249 5.15562C14.6688 5.2576 14.5637 5.32378 14.447 5.33001C14.331 5.33545 14.2196 5.28174 14.1519 5.18676C13.8319 4.70251 13.3594 4.33894 12.8089 4.15365C12.3481 3.99561 11.9362 3.72234 11.6108 3.35955C11.5944 3.34009 11.5695 3.3323 11.5454 3.33853C11.5213 3.34553 11.5034 3.365 11.4987 3.38913C11.3578 4.27121 11.5096 4.87769 11.9853 5.41724H11.986C12.3699 5.82675 12.8339 6.15294 13.3492 6.37716C13.7027 6.54766 13.8864 6.94471 13.7868 7.32463C13.7525 7.44763 13.6988 7.56441 13.6279 7.67107C13.2371 8.18958 12.6042 8.46751 11.9572 8.40367C11.2052 8.33672 10.8074 7.76995 10.3465 7.11287C10.1799 6.87542 10.0078 6.63017 9.80149 6.38027L9.80227 6.38105C8.93498 5.33782 7.79688 4.55462 6.51298 4.11856C6.03341 3.96986 3.54596 3.30967 1.67291 4.94224H1.67213C0.495785 6.00259 -0.116931 7.55351 0.0185349 9.13159C0.0317698 9.28573 0.0527911 9.43911 0.0815963 9.59092C0.485643 9.73884 0.905275 9.84316 1.3319 9.90233C2.46 10.0464 3.60595 9.88442 4.64989 9.43287C4.86632 9.341 5.0773 9.23824 5.28284 9.12457C5.44633 9.03426 5.65187 9.09343 5.74295 9.25692C5.83326 9.42041 5.77409 9.62595 5.6106 9.71625C5.50706 9.77386 5.40117 9.82836 5.29453 9.88052C5.63163 10.0137 5.95083 10.1865 6.24666 10.3943C6.42805 10.3842 6.58453 10.5205 6.59854 10.7011C6.76437 12.6194 8.47323 13.408 10.0614 13.5334C10.0863 13.5342 10.1097 13.5209 10.1206 13.4983C10.1315 13.4758 10.1284 13.4493 10.1128 13.4298C9.49077 12.6388 9.5437 11.8159 8.42576 10.7781L8.42498 10.7789C8.3588 10.7182 8.31988 10.6333 8.31598 10.543C8.31287 10.4535 8.34479 10.3663 8.40629 10.3001C8.46702 10.2339 8.55188 10.195 8.64219 10.1919C8.73172 10.1888 8.81891 10.2215 8.8851 10.2822C9.19027 10.5609 9.45965 10.8754 9.68697 11.2195C9.87226 11.1806 10.063 11.1393 10.267 11.0934C11.6917 10.7649 13.0229 10.1202 14.1651 9.20782C14.4197 8.56164 14.5747 7.88122 14.6237 7.18828C14.6494 6.81537 14.9164 6.50396 15.28 6.42065C15.8834 6.31399 16.4517 6.0633 16.9367 5.68961C17.3088 5.25363 17.4934 4.6885 17.4505 4.11706ZM4.49186 8.66515C4.32058 8.66515 4.16644 8.56239 4.10105 8.40434C4.03565 8.2463 4.07146 8.06413 4.19213 7.94346C4.31358 7.82201 4.49497 7.78619 4.65302 7.85159C4.81106 7.91699 4.91461 8.07114 4.91461 8.2424C4.91461 8.47597 4.72542 8.66515 4.49186 8.66515Z" fill="#8778AE"/>
<path d="M5.28757 1.16117C5.28212 1.18453 5.27745 1.21178 5.272 1.23669C5.26655 1.21178 5.26188 1.18453 5.25643 1.16117C4.70524 -1.0202 2.86241 0.40444 3.59584 1.14949C3.76089 1.31688 3.94695 1.25382 4.21165 1.36048V1.36126C4.48957 1.4975 4.71534 1.71938 4.85705 1.9942C5.04311 2.29782 5.18169 2.62715 5.26811 2.97282C5.26889 2.97905 5.26967 2.98527 5.27045 2.99228L5.272 2.98605L5.27356 2.99228C5.27434 2.98605 5.27512 2.97982 5.2759 2.97282C5.36231 2.62715 5.50089 2.29784 5.68696 1.9942C5.82865 1.71938 6.05443 1.4975 6.33236 1.36126C6.59705 1.2546 6.78312 1.31766 6.94816 1.15027C7.68154 0.404443 5.83876 -1.02033 5.28757 1.16117Z" fill="#8778AE"/>
</svg>
