<svg width="37" height="37" viewBox="0 0 37 37" fill="none" xmlns="http://www.w3.org/2000/svg">
<path d="M8.20559 11.5615C12.1344 5.60681 18.7644 1.94397 25.8445 1.73934C23.4913 0.634347 20.8721 0 18.0891 0C8.10328 0 0 8.10328 0 18.0891C0 23.4913 2.37369 28.341 6.11838 31.656C3.54007 25.0465 4.27673 17.5162 8.20559 11.5615Z" fill="white"/>
<path d="M30.0592 4.50195C32.658 11.091 31.9009 18.6213 27.9925 24.576C24.0636 30.5307 17.4337 34.1935 10.3535 34.3981C12.7067 35.5031 15.326 36.1375 18.1089 36.1375C28.0948 36.1375 36.1981 28.0342 36.1981 18.0483C36.1776 12.6666 33.8039 7.81693 30.0592 4.50195Z" fill="white"/>
<path d="M10.1094 10.4154C14.2838 9.06484 18.9084 9.8015 22.4485 12.4617C25.9885 15.1218 27.9939 19.3576 27.8506 23.7367C28.6282 22.3247 29.1193 20.7286 29.2216 19.0098C29.6104 12.83 24.904 7.53013 18.7242 7.14134C15.3888 6.93671 12.2989 8.22586 10.1094 10.4154Z" fill="white"/>
<path d="M25.9668 26.2334C21.7923 27.5839 17.1677 26.8473 13.6277 24.1871C10.0876 21.527 8.08226 17.2912 8.22549 12.9121C7.44791 14.324 6.9568 15.9201 6.85449 17.639C6.46569 23.8188 11.1721 29.1187 17.3519 29.5075C20.6873 29.7121 23.7772 28.4229 25.9668 26.2334Z" fill="white"/>
</svg>
